<?xml version="1.0" encoding="UTF-8" standalone="no"?>
<!-- Created with Inkscape (http://www.inkscape.org/) -->

<svg
   width="76.774879mm"
   height="29.245115mm"
   viewBox="0 0 272.03697 103.62442"
   id="svg3354"
   version="1.1"
   inkscape:version="1.1.2 (0a00cf5339, 2022-02-04)"
   sodipodi:docname="apphead.svg"
   xmlns:inkscape="http://www.inkscape.org/namespaces/inkscape"
   xmlns:sodipodi="http://sodipodi.sourceforge.net/DTD/sodipodi-0.dtd"
   xmlns="http://www.w3.org/2000/svg"
   xmlns:svg="http://www.w3.org/2000/svg"
   xmlns:rdf="http://www.w3.org/1999/02/22-rdf-syntax-ns#"
   xmlns:cc="http://creativecommons.org/ns#"
   xmlns:dc="http://purl.org/dc/elements/1.1/">
  <defs
     id="defs3356" />
  <sodipodi:namedview
     id="base"
     pagecolor="#ffffff"
     bordercolor="#666666"
     borderopacity="1.0"
     inkscape:pageopacity="0.0"
     inkscape:pageshadow="2"
     inkscape:zoom="0.49497475"
     inkscape:cx="-375.77674"
     inkscape:cy="264.65996"
     inkscape:document-units="px"
     inkscape:current-layer="layer1"
     showgrid="false"
     inkscape:window-width="1292"
     inkscape:window-height="704"
     inkscape:window-x="74"
     inkscape:window-y="27"
     inkscape:window-maximized="1"
     inkscape:pagecheckerboard="0"
     fit-margin-top="2.5"
     fit-margin-left="2.5"
     fit-margin-right="2.5"
     fit-margin-bottom="2.5" />
  <metadata
     id="metadata3359">
    <rdf:RDF>
      <cc:Work
         rdf:about="">
        <dc:format>image/svg+xml</dc:format>
        <dc:type
           rdf:resource="http://purl.org/dc/dcmitype/StillImage" />
      </cc:Work>
    </rdf:RDF>
  </metadata>
  <g
     inkscape:label="Calque 1"
     inkscape:groupmode="layer"
     id="layer1"
     transform="translate(-73.208662,-335.53085)">
    <g
       id="g10546"
       transform="translate(-64.349711,-28.387651)">
      <g
         transform="matrix(0.08009289,0,0,0.05273438,281.21368,369.80959)"
         id="g3"
         style="fill:#2a7fff">
        <path
           inkscape:connector-curvature="0"
           d="m 801.3882,925.212 c -4.1222,17.1665 -14.6907,29.3257 -30.4462,35.1493 -25.9366,9.5861 -46.9487,-1.978 -59.9796,-24.6365 -2.2269,-3.8456 -3.9421,-7.9816 -5.2701,-12.2144 L 609.2494,617.5683 c -1.7014,-5.3809 -9.6276,-4.288 -9.7938,1.3694 l -5.5746,186.1493 106.3336,797.895 c 3.7487,28.2191 -18.1904,53.2844 -46.6586,53.2844 h -65.1804 c -23.7371,0 -43.7536,-17.6509 -46.7137,-41.1945 l -89.803,-714.0814 -89.8032,714.0814 c -2.9602,23.5436 -22.9764,41.1945 -46.6999,41.1945 h -65.1806 c -28.4682,0 -50.4208,-25.0653 -46.6583,-53.2844 L 309.8503,805.087 304.2756,618.9376 c -0.166,-5.6574 -8.106,-6.7503 -9.7936,-1.3694 l -96.4429,305.9421 c -1.3418,4.2328 -3.0572,8.3688 -5.2704,12.2144 -13.0443,22.6584 -34.0566,34.2225 -59.9794,24.6365 -15.7695,-5.8236 -26.324,-17.9828 -30.4601,-35.1493 -2.5452,-10.61 -2.0059,-21.7316 1.0236,-32.2169 L 241.7785,413.6022 c 13.0031,-45.0538 54.2389,-76.067 101.1324,-76.067 h 217.9096 c 46.8934,0 88.1293,31.0132 101.1321,76.067 L 800.3784,892.995 c 3.0294,10.4854 3.569,21.6069 1.0098,32.217 z"
           id="path5"
           style="fill:#2a7fff" />
        <circle
           cx="451.86441"
           cy="185.3735"
           r="129.10699"
           id="circle7"
           style="fill:#2a7fff" />
      </g>
      <g
         transform="matrix(0.07850879,0,0,0.05273438,141.29317,372.09481)"
         id="g16"
         style="fill:#ff6600">
        <path
           inkscape:connector-curvature="0"
           d="m 779.803,905.6337 c -4.906,17.6151 -17.4805,29.8795 -36.8879,35.3109 -31.3215,8.7738 -54.4355,-4.9732 -66.7133,-33.6936 L 572.2638,550.9885 c -0.7545,-2.6145 -4.5417,-2.3718 -4.9596,0.3236 l -20.863,134.2757 c -3.3019,21.2539 -1.6712,42.9794 4.7711,63.5056 l 142.3214,453.8254 c 7.7766,24.7986 -10.7549,50.0282 -36.7529,50.0282 h -98.9512 c -5.9164,0 -10.9435,4.3802 -11.7523,10.2428 l -46.4027,336.2485 c -3.3559,24.394 -24.2054,42.5616 -48.8287,42.5616 h -54.6915 c -24.6233,0 -45.4728,-18.1676 -48.8287,-42.5616 L 300.923,1263.1898 c -0.8088,-5.8625 -5.8224,-10.2428 -11.7523,-10.2428 h -98.9515 c -25.9977,0 -44.5292,-25.2296 -36.753,-50.0282 L 295.788,749.0934 c 6.4422,-20.5262 8.073,-42.2517 4.7711,-63.5056 L 279.7096,551.3121 c -0.4179,-2.6954 -4.2051,-2.9381 -4.9731,-0.3236 L 170.7982,907.251 c -12.2781,28.7204 -35.3917,42.4674 -66.7133,33.6936 C 84.6775,935.5131 72.103,923.2487 67.197,905.6337 64.2455,895.0135 64.7578,883.7329 68.1137,873.2475 L 225.4223,380.553 c 10.8089,-33.8821 42.292,-56.8747 77.8591,-56.8747 h 240.4507 c 35.5533,0 67.0367,22.9926 77.8456,56.8747 l 157.3085,492.6945 c 3.3559,10.4853 3.8683,21.766 0.9168,32.3862 z"
           id="path18"
           style="fill:#ff6600" />
        <circle
           cx="423.5"
           cy="172.9557"
           r="130.9557"
           id="circle20"
           style="fill:#ff6600" />
      </g>
      <text
         xml:space="preserve"
         style="font-size:71.2258px;line-height:1.25;font-family:sans-serif;stroke:#000000;stroke-width:2.82748;stroke-miterlimit:4;stroke-dasharray:none;stroke-opacity:1"
         x="213.61905"
         y="443.99091"
         id="text1334"
         transform="scale(1.0058908,0.99414369)"><tspan
           sodipodi:role="line"
           id="tspan1332"
           style="font-size:71.2258px;stroke:#000000;stroke-width:2.82748;stroke-miterlimit:4;stroke-dasharray:none;stroke-opacity:1"
           x="213.61905"
           y="443.99091">=</tspan></text>
      <text
         xml:space="preserve"
         style="font-size:105.149px;line-height:1.25;font-family:sans-serif;stroke:#000000;stroke-width:4.17415;stroke-miterlimit:4;stroke-dasharray:none;stroke-opacity:1"
         x="332.5784"
         y="475.49069"
         id="text1334-3"
         transform="scale(1.0611157,0.94240431)"><tspan
           sodipodi:role="line"
           id="tspan1332-6"
           style="font-style:normal;font-variant:normal;font-weight:normal;font-stretch:normal;font-size:105.149px;font-family:'Ubuntu Mono';-inkscape-font-specification:'Ubuntu Mono';stroke:#000000;stroke-width:4.17415;stroke-miterlimit:4;stroke-dasharray:none;stroke-opacity:1"
           x="332.5784"
           y="475.49069">?</tspan></text>
    </g>
  </g>
</svg>
