<?xml version="1.0" encoding="UTF-8" standalone="no"?>
<svg
   xmlns:dc="http://purl.org/dc/elements/1.1/"
   xmlns:cc="http://creativecommons.org/ns#"
   xmlns:rdf="http://www.w3.org/1999/02/22-rdf-syntax-ns#"
   xmlns:svg="http://www.w3.org/2000/svg"
   xmlns="http://www.w3.org/2000/svg"
   xmlns:sodipodi="http://sodipodi.sourceforge.net/DTD/sodipodi-0.dtd"
   xmlns:inkscape="http://www.inkscape.org/namespaces/inkscape"
   viewBox="0 -256 1792 1792"
   id="svg3447"
   version="1.1"
   inkscape:version="0.91 r13725"
   width="100%"
   height="100%"
   sodipodi:docname="backtohome.svg">
  <metadata
     id="metadata3457">
    <rdf:RDF>
      <cc:Work
         rdf:about="">
        <dc:format>image/svg+xml</dc:format>
        <dc:type
           rdf:resource="http://purl.org/dc/dcmitype/StillImage" />
        <dc:title></dc:title>
      </cc:Work>
    </rdf:RDF>
  </metadata>
  <defs
     id="defs3455" />
  <sodipodi:namedview
     pagecolor="#ffffff"
     bordercolor="#666666"
     borderopacity="1"
     objecttolerance="10"
     gridtolerance="10"
     guidetolerance="10"
     inkscape:pageopacity="0"
     inkscape:pageshadow="2"
     inkscape:window-width="1307"
     inkscape:window-height="744"
     id="namedview3453"
     showgrid="false"
     inkscape:zoom="0.32255336"
     inkscape:cx="193.77202"
     inkscape:cy="880.53792"
     inkscape:window-x="59"
     inkscape:window-y="24"
     inkscape:window-maximized="1"
     inkscape:current-layer="svg3447" />
  <g
     transform="matrix(1,0,0,-1,113.89831,1262.6441)"
     id="g3449"
     style="fill:#006680">
    <path
       d="M 1536,640 Q 1536,484 1475,342 1414,200 1311,97 1208,-6 1066,-67 924,-128 768,-128 589,-128 431.5,-52 274,24 165.5,161 57,298 18,473 q -3,14 7,27 9,12 25,12 h 199 q 23,0 30,-23 Q 329,327 464,227.5 599,128 768,128 872,128 966.5,168.5 1061,209 1130,278 q 69,69 109.5,163.5 40.5,94.5 40.5,198.5 0,104 -40.5,198.5 Q 1199,933 1130,1002 1061,1071 966.5,1111.5 872,1152 768,1152 670,1152 580,1116.5 490,1081 420,1015 L 557,877 q 31,-30 14,-69 -17,-40 -59,-40 H 64 Q 38,768 19,787 0,806 0,832 v 448 q 0,42 40,59 39,17 69,-14 l 130,-129 q 107,101 244.5,156.5 137.5,55.5 284.5,55.5 156,0 298,-61 142,-61 245,-164 103,-103 164,-245 61,-142 61,-298 z"
       id="path3451"
       inkscape:connector-curvature="0"
       style="fill:#006680" />
  </g>
  <path
     inkscape:connector-curvature="0"
     d="m 1320.8811,641.8339 -81.9455,-47.91592 0,-117.42568 c 0,-18.1876 -25.4313,-33.06841 -56.5141,-33.06841 l -56.514,0 c -31.0828,0 -56.5141,14.88081 -56.5141,33.06841 l 0,18.28679 -113.02824,-66.07048 c -15.42833,-8.5317 -29.55683,-18.35314 -56.51403,-18.35314 -26.95724,0 -41.08575,9.82144 -56.51408,18.35314 L 478.82127,641.8339 c -17.63237,10.74732 -31.08273,18.58455 -31.08273,33.06842 0,18.61735 24.41407,33.06816 56.51408,33.06816 l 56.51407,0 0,198.41002 c 0,18.1876 25.43133,33.06841 56.51408,33.06841 l 169.54221,0 0,-165.34159 c 0,-18.1876 25.43133,-33.06842 56.51407,-33.06842 l 113.02811,0 c 31.08276,0 56.51414,14.88082 56.51414,33.06842 l 0,165.34159 169.5422,0 c 31.0828,0 56.5141,-14.88081 56.5141,-33.06841 l 0,-198.41002 56.514,0 c 32.1,0 56.5141,-14.45081 56.5141,-33.06816 0,-14.48387 -13.4504,-22.3211 -31.0826,-33.06842 z"
     id="path3392"
     style="fill:#44aa00" />
</svg>
